<svg xmlns="http://www.w3.org/2000/svg" aria-hidden="true" style="position:absolute;width:0;height:0;overflow:hidden"><defs><symbol id="client1" viewBox="0 0 28 32"><path d="m4.085 0 4.773 4.546-8.859-.004V26.6h23.155v-8.434l4.767 4.542V0H4.085zm18.858 17.633L9.411 4.741h13.532v12.892zm-4.201 5.741H3.662V8.539h1.066V22.37h14.014v1.005zM6.67 30.689l-.562-1.156h-.464l.814 1.53v.891h.42v-.892l.815-1.53h-.462l-.562 1.156zm2.071-1.157h.099l.915 2.421h-.439l-.196-.567h-.937l-.195.567h-.437l.911-2.421h.279zm-.444 1.524h.709l-.354-1.027-.354 1.027zm2.926-.402-.041-.052-.011-.015a1.267 1.267 0 0 1-.142-.23l-.003-.008a.58.58 0 0 1-.051-.239v-.001c0-.126.026-.234.078-.326s.128-.162.218-.208l.003-.001a.71.71 0 0 1 .334-.075.64.64 0 0 1 .318.075.524.524 0 0 1 .237.673l.001-.003a.603.603 0 0 1-.116.173 1.15 1.15 0 0 1-.166.146l-.003.002-.168.123.479.565a.94.94 0 0 0 .104-.435V30.8v.001h.346c0 .118-.012.229-.035.334a1.04 1.04 0 0 1-.179.403l.002-.003.354.419h-.463l-.141-.166a.933.933 0 0 1-.242.134l-.007.002c-.109.04-.236.063-.367.063h-.009a.903.903 0 0 1-.417-.089.664.664 0 0 1-.271-.24l-.002-.003a.656.656 0 0 1-.095-.343V31.3v.001c0-.099.02-.185.061-.259a.805.805 0 0 1 .168-.21c.066-.059.14-.119.225-.178zm.199.244-.05.036a.62.62 0 0 0-.13.136l-.001.002a.407.407 0 0 0-.022.411l-.001-.002a.358.358 0 0 0 .133.137l.002.001c.06.032.13.051.205.051h.013-.001a.62.62 0 0 0 .392-.139l-.002.001-.538-.633zm.095-.443.148-.099a.536.536 0 0 0 .149-.135l.001-.001a.302.302 0 0 0 .045-.159v-.012.001a.24.24 0 0 0-.241-.233h-.014.001-.007a.245.245 0 0 0-.223.142l-.001.002a.34.34 0 0 0 .011.298l-.001-.002c.025.052.06.107.105.165l.027.035zm4.236.71h-.416a.76.76 0 0 1-.078.272l.002-.004a.386.386 0 0 1-.166.164l-.002.001a.621.621 0 0 1-.262.057l-.027-.001h.001-.014a.508.508 0 0 1-.24-.06l.003.001a.48.48 0 0 1-.172-.163l-.001-.002a.78.78 0 0 1-.098-.249l-.001-.005a1.599 1.599 0 0 1-.032-.32v-.013.001-.204c0-.129.012-.243.035-.343s.06-.185.108-.254a.47.47 0 0 1 .176-.155l.003-.001a.535.535 0 0 1 .236-.053h.014-.001c.116 0 .21.02.283.06s.126.095.163.17a.778.778 0 0 1 .073.267h.415a1.037 1.037 0 0 0-.139-.435l.003.005a.764.764 0 0 0-.305-.292l-.004-.002a1.01 1.01 0 0 0-.457-.107h-.033.002c-.152 0-.289.027-.411.08s-.225.129-.311.232a1.011 1.011 0 0 0-.197.353l-.002.007c-.046.14-.068.298-.068.472v.202c0 .174.022.331.067.472s.111.261.196.361a.893.893 0 0 0 .712.31c.195 0 .361-.035.497-.106s.242-.168.317-.291a.962.962 0 0 0 .133-.424zm2.309-.356v-.133c0-.183-.024-.347-.073-.49a1.051 1.051 0 0 0-.206-.373l.001.001a.88.88 0 0 0-.312-.232l-.006-.002a1.006 1.006 0 0 0-.409-.082.983.983 0 0 0-.407.082.88.88 0 0 0-.318.234 1.084 1.084 0 0 0-.206.371c-.047.14-.074.301-.074.469v.023-.001.133c0 .183.025.347.074.492.048.143.119.266.21.372l-.001-.001c.09.102.196.18.317.235.123.053.259.08.408.08s.286-.027.409-.08a.873.873 0 0 0 .316-.235c.089-.102.157-.225.204-.37s.072-.309.072-.492zm-.417-.136v.136c0 .136-.014.255-.04.36a.783.783 0 0 1-.115.267l.002-.003a.503.503 0 0 1-.18.16l-.003.001a.54.54 0 0 1-.237.053h-.012.001-.011a.545.545 0 0 1-.239-.055l.003.001a.541.541 0 0 1-.185-.16l-.001-.002a.789.789 0 0 1-.115-.259l-.001-.005a1.405 1.405 0 0 1-.04-.341v-.02.001-.136c0-.135.014-.254.04-.358s.065-.191.115-.261a.5.5 0 0 1 .181-.158l.003-.001a.527.527 0 0 1 .237-.055h.01c.092 0 .174.018.248.054s.134.089.184.16a.72.72 0 0 1 .115.261c.027.104.04.223.04.358z" style="fill:var(--color1,)"/></symbol><symbol id="client2" viewBox="0 0 25 32"><path  d="M10.531 1.807h-.084c-.129-.008-.259-.011-.388-.014h-.28c-.244 0-.494.006-.741.018L9.01 1.81l-.029.001h.001a17.354 17.354 0 0 0-6.577 1.697l.104-.045-.266.128V17.22l.623-.212a23.463 23.463 0 0 1 1.731-.513c1.489-.398 3.202-.638 4.968-.662h.014v1.791a14.13 14.13 0 0 0-.656.018h-.052c-1.399.079-2.71.289-3.972.619l.139-.031a19.392 19.392 0 0 0-4.667 1.831l.1-.051V2.531A17.917 17.917 0 0 1 5.137.61l.127-.028A17.87 17.87 0 0 1 9.775 0h.267c.315.008.622.022.91.044.83.06 1.598.187 2.34.379l-.09-.02v1.762a13.167 13.167 0 0 0-2.135-.326l-.045-.003-.044-.004c-.152-.013-.304-.026-.446-.026zm3.102 1.801c.391.03.796.044 1.205.044a19.383 19.383 0 0 0 4.883-.64l-.135.03a19.501 19.501 0 0 0 4.666-1.832l-.101.051v17.167a17.979 17.979 0 0 1-4.665 1.921l-.127.028a17.97 17.97 0 0 1-4.512.581h-.115c-1.177 0-2.319-.147-3.41-.425l.095.021V3.275c.265.062.537.118.814.164.455.077.934.133 1.402.167zm8.737.133-.623.209c-.572.193-1.151.365-1.731.518-1.551.415-3.333.657-5.17.664h-.004c-.406 0-.78-.011-1.141-.034l-.497-.033v14.02l.427.037c.395.035.803.052 1.214.052a16.511 16.511 0 0 0 4.19-.554l-.116.026a16.994 16.994 0 0 0 3.286-1.189l-.102.044.267-.128V3.74zM1.682 25.982a.916.916 0 0 0-.661-.281l-.034.001h.002-.014c-.139 0-.272.028-.393.078l.007-.003a.904.904 0 0 0-.51.512l-.002.006a1.003 1.003 0 0 0-.071.387v2.335c-.006.164.026.328.092.479a.83.83 0 0 0 .554.479c.114.031.231.048.349.048a.986.986 0 0 0 .968-.983v-.261h-.611v.222c0 .07-.013.136-.037.198l.001-.004a.37.37 0 0 1-.089.132.426.426 0 0 1-.255.089.308.308 0 0 1-.286-.125l-.001-.001a.548.548 0 0 1-.082-.289l.001-.024v.001V26.8a.74.74 0 0 1 .075-.349.31.31 0 0 1 .262-.143l.038.002H.984h.012c.107 0 .201.052.26.131l.001.001a.493.493 0 0 1 .101.3v.014-.001.202h.604v-.249c0-.143-.027-.28-.077-.406l.003.007a.955.955 0 0 0-.205-.329zm3.627-.026a1.051 1.051 0 0 0-1.058-.191.964.964 0 0 0-.557.512l-.002.006a1.08 1.08 0 0 0-.089.452v2.239a1.08 1.08 0 0 0 .089.459.888.888 0 0 0 .236.313.959.959 0 0 0 .323.197 1.049 1.049 0 0 0 1.059-.198l-.001.001a.948.948 0 0 0 .23-.313c.063-.144.093-.301.089-.459V26.714c0-.156-.033-.305-.092-.439l.003.007a1.016 1.016 0 0 0-.23-.327zm-.285 3.019.002.035a.398.398 0 0 1-.123.289.446.446 0 0 1-.575 0l.001.001a.4.4 0 0 1-.121-.326v.002-2.24l-.001-.034c0-.114.047-.216.123-.289a.446.446 0 0 1 .575 0l-.001-.001a.398.398 0 0 1 .121.326v-.002 2.241zm5.048 1.001v-4.241h-.587l-.771 2.245h-.01l-.777-2.244h-.58v4.24h.606v-2.579h.011l.593 1.823h.302l.598-1.823h.01v2.579h.606zm3.441-3.943a.834.834 0 0 0-.342-.232 1.31 1.31 0 0 0-.416-.066h-.024.001-.9v4.241h.604V28.32h.311c.189.009.376-.031.545-.116a.89.89 0 0 0 .33-.32l.002-.004a1.02 1.02 0 0 0 .139-.369c.021-.133.033-.287.033-.444v-.04.002a2.426 2.426 0 0 0-.059-.606.906.906 0 0 0-.223-.39zm-.312 1.292a.538.538 0 0 1-.057.224l.001-.003a.342.342 0 0 1-.154.147l-.002.001a.617.617 0 0 1-.254.054l-.033-.001h.002-.276v-1.442h.311l.029-.001c.088 0 .172.02.247.055l-.004-.002a.35.35 0 0 1 .141.154l.001.002a.62.62 0 0 1 .053.236v.282c0 .098.006.201 0 .291H13.2zm3.174-1.59h-.495l-.934 4.241h.604l.177-.911h.824l.178.911h.604l-.958-4.241zm-.558 2.752.297-1.537h.011l.295 1.537h-.604zm4.462-.198h-.011l-.912-2.554h-.581v4.241h.604v-2.55h.012l.923 2.549h.568v-4.24h-.604v2.554zm3.692-2.554-.486 1.687h-.012l-.486-1.687h-.639l.83 2.449v1.792h.604v-1.792l.83-2.448h-.64zM-.003 31.173h.291v.817h.198v-.817h.289v-.167h-.778v.168zm2.448-.168-.382.985h.21l.081-.224h.392l.084.224h.215l-.391-.985h-.21zm-.031.595.134-.365.134.365h-.268zm2.451.027h.228v.127a.373.373 0 0 1-.234.083h-.014a.25.25 0 0 1-.195-.094.406.406 0 0 1-.073-.234l.001-.023v.001c0-.219.095-.329.283-.329l.021-.001c.097 0 .178.067.201.157v.001l.194-.038c-.042-.192-.18-.289-.417-.289h-.013a.492.492 0 0 0-.331.127.48.48 0 0 0-.141.38v-.002.023c0 .132.048.254.127.347l-.001-.001c.087.09.209.146.343.146l.032-.001h-.001.016a.59.59 0 0 0 .402-.158v-.388h-.427v.166zm2.471-.622h-.199v.985h.689v-.167h-.49v-.817zm2.09 0h-.199v.985h.199v-.985zm2.043.657-.404-.657h-.193v.985h.185v-.643l.396.643h.198v-.985h-.182v.658zm1.846-.106h.491v-.167h-.491v-.215h.527v-.168h-.727v.985h.747v-.167h-.548v-.267zm4.478-.163h-.388v-.388h-.197v.984h.197v-.431h.388v.431h.198v-.985h-.198v.388zm1.858.163h.492v-.167h-.492v-.215h.529v-.168h-.726v.985h.746v-.167h-.548v-.267zm2.519 0c.171-.027.259-.118.259-.274a.23.23 0 0 0-.096-.219h-.001a.555.555 0 0 0-.25-.059l-.04.001h.002-.417v.984h.198v-.412h.055c.039 0 .076.008.109.023l-.002-.001a.201.201 0 0 1 .07.072l.215.313h.236l-.12-.192a.704.704 0 0 0-.215-.235l-.002-.002zm-.199-.136h-.146v-.247h.156a.515.515 0 0 1 .205.024l-.004-.001a.13.13 0 0 1-.009.2.537.537 0 0 1-.164.025l-.039-.001h.002zm2.099.136h.49v-.167h-.49v-.215h.529v-.168h-.729v.985h.747v-.167h-.548v-.267z" style="fill:var(--color1,)"/></symbol><symbol id="client3" viewBox="0 0 34 32"><path d="M5.316 31.399c.013 0 .025.003.036.008.012.004.022.01.031.018l.172.162a1.416 1.416 0 0 1-.474.304l-.01.003a1.91 1.91 0 0 1-.688.11h-.036c-.219 0-.429-.038-.624-.107l.013.004a1.426 1.426 0 0 1-.487-.291l.001.001a1.295 1.295 0 0 1-.311-.441l-.003-.008a1.444 1.444 0 0 1-.11-.559v-.018.001-.019c0-.203.044-.395.122-.568l-.003.009c.075-.167.189-.32.334-.449.146-.125.318-.225.506-.29l.011-.003c.192-.065.414-.103.644-.103h.023-.001c.211-.004.422.028.618.094.171.064.328.151.464.26l-.144.173a.134.134 0 0 1-.036.031h-.001a.094.094 0 0 1-.05.014h-.009a.133.133 0 0 1-.063-.019h.001l-.078-.046-.107-.059a1.2 1.2 0 0 0-.333-.103l-.007-.001a1.438 1.438 0 0 0-.235-.018h-.023.001-.017c-.165 0-.324.028-.471.08l.01-.003c-.145.05-.269.124-.376.218l.001-.001c-.108.101-.19.219-.244.347-.056.13-.088.282-.088.441v.016-.001.017c0 .161.032.314.091.454l-.003-.008a.992.992 0 0 0 .59.556l.007.002c.141.05.291.075.443.073.088.002.176-.004.263-.015.219-.022.414-.108.571-.239l-.002.001a.137.137 0 0 1 .082-.03zm4.977-.814c.003.195-.037.39-.116.573a1.252 1.252 0 0 1-.323.444l-.001.001a1.506 1.506 0 0 1-.509.291 2.151 2.151 0 0 1-1.325-.004l.015.004a1.524 1.524 0 0 1-.509-.294l.002.002a1.321 1.321 0 0 1-.324-.441l-.003-.008a1.472 1.472 0 0 1 .003-1.157l-.004.01c.073-.167.185-.32.328-.451.144-.123.317-.219.507-.281.422-.14.888-.14 1.31 0 .191.066.365.166.508.293.272.243.442.594.442.985v.036-.002zm-.452 0a1.184 1.184 0 0 0-.081-.461.952.952 0 0 0-.588-.559l-.007-.002a1.539 1.539 0 0 0-.963.003l.011-.003a1.03 1.03 0 0 0-.365.218l.001-.001a.925.925 0 0 0-.23.337l-.002.006a1.338 1.338 0 0 0 0 .921.935.935 0 0 0 .233.344c.101.094.226.168.365.215.307.098.645.098.952 0 .138-.048.263-.122.364-.215a.962.962 0 0 0 .231-.344 1.16 1.16 0 0 0 .081-.461zm3.849.483.044.103a2.5 2.5 0 0 1 .106-.204l1.101-1.71c.022-.03.041-.048.062-.055a.283.283 0 0 1 .092-.008h-.001.326v2.781h-.386v-2.131a.683.683 0 0 1 0-.098v.002l-1.108 1.734a.155.155 0 0 1-.064.063h-.001a.191.191 0 0 1-.093.023h-.065a.199.199 0 0 1-.094-.024h.001a.16.16 0 0 1-.064-.062v-.001l-1.14-1.745v2.233h-.373v-2.776h.34c.027 0 .053.004.078.01h-.002a.123.123 0 0 1 .06.052v.001l1.124 1.712a.585.585 0 0 1 .057.1zm4.144-.138v1.041h-.431v-2.777h.96c.182-.003.363.017.537.061.14.034.269.092.379.173a.729.729 0 0 1 .214.269l.002.004a.81.81 0 0 1 .073.355v.012a.773.773 0 0 1-.31.619l-.002.001a1.09 1.09 0 0 1-.375.182l-.008.002a1.877 1.877 0 0 1-.518.064l-.521-.008zm0-.299h.521c.113.001.226-.013.333-.043a.716.716 0 0 0 .244-.121l-.002.001a.525.525 0 0 0 .198-.411v-.007l.001-.028a.453.453 0 0 0-.046-.201l.001.003a.527.527 0 0 0-.15-.189l-.001-.001a.929.929 0 0 0-.582-.149h.003-.521v1.145zm5.792 1.344H23.279a.169.169 0 0 1-.089-.026h.001a.17.17 0 0 1-.056-.063v-.001l-.293-.672H21.37l-.304.671a.153.153 0 0 1-.053.062h-.001a.161.161 0 0 1-.092.028H20.575l1.293-2.781h.448l1.311 2.781zm-2.133-1.033h1.215l-.513-1.132a1.598 1.598 0 0 1-.094-.249l-.003-.013-.049.145a1.664 1.664 0 0 1-.047.117l-.509 1.132zm3.995-1.736a.185.185 0 0 1 .064.05l1.886 2.097v-2.159h.386v2.781H27.6a.222.222 0 0 1-.082-.016l.001.001a.241.241 0 0 1-.069-.052l-1.883-2.095a.683.683 0 0 1 0 .098v-.002 2.067h-.386v-2.781h.228a.206.206 0 0 1 .078.012zm5.511 1.663v1.105h-.431v-1.105l-1.191-1.675h.396c.031 0 .059.009.084.024h-.001a.261.261 0 0 1 .058.062l.745 1.081c.051.071.095.152.129.239l.003.007.056-.119a1.07 1.07 0 0 1 .073-.127l.735-1.088a.281.281 0 0 1 .055-.059h.001a.147.147 0 0 1 .085-.028h.398L31 30.869zm-17.523-6.345c.187.02.377.037.569.052 2.907-1.112 5.367-2.93 7.072-5.23s2.578-4.976 2.511-7.697l-3.204-2.738c.651 2.897.347 5.891-.881 8.649-1.227 2.756-3.328 5.168-6.067 6.963z" style="fill:var(--color1,)"/><path  d="m12.332 24.397.086.015c2.927-1.789 5.16-4.287 6.408-7.172s1.454-6.022.593-9.008l-4.564-3.899c1.846 3.205 2.589 6.792 2.143 10.343s-2.064 6.923-4.664 9.721zm15.478-9.533c-.775 2.99-2.659 5.686-5.37 7.689a16.834 16.834 0 0 1-2.454 1.519l-.098.045c2.208-.554 4.237-1.535 5.931-2.865s3.009-2.976 3.841-4.809l-1.85-1.58z" style="fill:var(--color1,)"/><path d="m27.084 14.424-2.635-2.251c-.051 2.568-.905 5.076-2.474 7.265s-3.796 3.98-6.45 5.186h.013c.591 0 1.182-.03 1.769-.09 2.48-.865 4.671-2.24 6.376-4.005s2.874-3.862 3.4-6.105zM12.713 2.689 9.57-.001C6.76.927 4.342 2.558 2.635 4.68.926 6.801.007 9.312 0 11.888c.01 2.844 1.131 5.605 3.185 7.844s4.921 3.829 8.151 4.519c2.884-3.002 4.572-6.711 4.82-10.589s-.959-7.721-3.443-10.973zM34.348 14.01c-.012-3.375-1.585-6.609-4.379-8.995-2.792-2.386-6.578-3.731-10.528-3.742h-.034c-1.896 0-3.72.311-5.423.884l.12-.035 19.249 16.447c.627-1.338.993-2.905.995-4.558v-.001z" style="fill:var(--color1,)"/></symbol><symbol id="client4" viewBox="0 0 66 32"><path d="M10.208 9.772h-.002c-1.862 0-3.372 1.361-3.372 3.04v.002c0 1.678 1.51 3.04 3.372 3.04h.002c1.862 0 3.372-1.361 3.372-3.04v-.002c0-1.678-1.51-3.04-3.372-3.04zM35.095 8.8c-.005-2.332-1.034-4.566-2.863-6.216C30.403.935 27.925.007 25.337.001c-2.587.004-5.067.933-6.896 2.582s-2.86 3.885-2.865 6.217v12.859S35.093 19.7 35.094 8.802V8.8zM0 25.88c.005 1.623.721 3.178 1.994 4.325S4.991 32 6.791 32.004c1.799-.005 3.523-.651 4.796-1.798s1.989-2.701 1.994-4.324v-8.946S.001 18.3.001 25.881zm6.79 1.603c-.351 0-.696-.094-.988-.27a1.664 1.664 0 0 1-.651-.71l-.004-.01a1.443 1.443 0 0 1-.099-.935l-.002.01c.077-.329.249-.61.485-.82l.002-.001c.247-.22.557-.376.9-.437l.011-.002c.344-.062.702-.03 1.027.091s.603.326.798.59.3.574.3.891c.001.211-.044.421-.133.616s-.22.372-.385.522a1.804 1.804 0 0 1-.565.345l-.012.004a1.904 1.904 0 0 1-.68.123h-.002v-.006zM19.209 24.6v3.33h-.686V24.6h.686zm1.327 1.422v.535h-1.514v-.535h1.514zm.159-1.422v.537h-1.673V24.6h1.674zm3.133 1.587v.158c0 .254-.034.481-.103.681-.066.199-.165.37-.292.517l.002-.002a1.27 1.27 0 0 1-.448.322 1.401 1.401 0 0 1-.554.112h-.022.001c-.208 0-.4-.037-.574-.112a1.29 1.29 0 0 1-.447-.321l-.001-.001a1.496 1.496 0 0 1-.292-.505l-.003-.011a2.071 2.071 0 0 1-.103-.651v-.032.002-.158c0-.254.034-.482.103-.681.066-.198.165-.37.292-.516l-.002.002c.126-.142.276-.25.448-.325.174-.075.365-.112.574-.112.211 0 .402.037.575.112.174.075.323.183.448.325.126.142.224.313.293.515.07.199.105.426.105.681zm-.693.158v-.162c0-.176-.016-.332-.048-.466a1.043 1.043 0 0 0-.144-.343l.002.004a.61.61 0 0 0-.225-.204l-.003-.002a.651.651 0 0 0-.295-.07h-.015.001a.65.65 0 0 0-.308.07.624.624 0 0 0-.225.204l-.001.002c-.063.097-.111.21-.138.332l-.001.007a1.99 1.99 0 0 0-.048.437v.031-.002.162c0 .176.016.331.048.467.032.134.08.247.142.341.062.091.139.161.229.208s.193.071.308.071a.658.658 0 0 0 .309-.07.62.62 0 0 0 .225-.206l.001-.002c.061-.094.108-.207.14-.341.03-.132.048-.283.048-.439v-.029.002zm2.92.713v-.007a.45.45 0 0 0-.028-.156l.001.003a.304.304 0 0 0-.095-.132h-.001a.828.828 0 0 0-.194-.119l-.005-.002a2.627 2.627 0 0 0-.312-.118l-.02-.005a4.292 4.292 0 0 1-.456-.175l.026.011a1.776 1.776 0 0 1-.361-.215l.004.003a.95.95 0 0 1-.239-.282l-.003-.005a.78.78 0 0 1-.088-.361v-.017.001-.011c0-.134.034-.26.093-.371l-.002.004a.873.873 0 0 1 .256-.293c.109-.083.24-.146.389-.19.151-.044.316-.066.496-.066.245 0 .46.044.642.133s.325.21.425.364c.101.154.153.33.153.528h-.681v-.012a.512.512 0 0 0-.063-.247l.001.003a.416.416 0 0 0-.18-.175l-.002-.001a.64.64 0 0 0-.283-.064h-.025.001-.023a.694.694 0 0 0-.278.057l.005-.002a.401.401 0 0 0-.179.143l-.001.001a.348.348 0 0 0-.059.195v.007c0 .056.013.108.041.153a.465.465 0 0 0 .127.127l.002.001c.056.04.125.077.208.112s.178.069.286.103c.182.055.341.116.479.185s.254.145.347.231c.094.086.163.182.211.29s.07.231.07.368l.001.032c0 .265-.129.5-.328.645l-.002.002c-.106.079-.234.139-.382.18s-.313.062-.496.062c-.164 0-.327-.022-.487-.065a1.49 1.49 0 0 1-.442-.202l.005.003a1.01 1.01 0 0 1-.308-.333l-.003-.005a.97.97 0 0 1-.116-.487h.688c0 .104.016.191.048.263.031.07.077.128.134.173l.001.001c.06.044.13.077.207.095l.004.001c.082.02.172.03.269.03h.026a.724.724 0 0 0 .272-.052l-.005.002a.362.362 0 0 0 .229-.336v-.005zm2.642-2.458v3.33h-.684V24.6h.684zm1.025 0v.537h-2.716V24.6h2.716zm2.625 2.795v.535h-1.772v-.535h1.772zM30.799 24.6v3.33h-.687V24.6h.687zm1.317 1.356v.521h-1.542v-.521h1.542zm.228-1.356v.537h-1.77V24.6h1.77zm.403 0h1.241a1.7 1.7 0 0 1 .656.114c.185.076.326.19.425.339s.148.333.148.551c0 .179-.03.332-.091.46a.854.854 0 0 1-.252.316l-.002.001a1.316 1.316 0 0 1-.372.199l-.009.003-.217.115h-1.08l-.005-.535H34.014a.632.632 0 0 0 .281-.066l-.004.002a.431.431 0 0 0 .178-.176l.001-.002a.541.541 0 0 0 .062-.253v-.013.001-.015a.603.603 0 0 0-.061-.265l.002.004a.403.403 0 0 0-.179-.177l-.002-.001a.653.653 0 0 0-.283-.063h-.023.001-.556v2.793h-.685v-3.33zm1.861 3.33-.759-1.485.724-.005.769 1.457v.031h-.734zm3.602-1.186h-.848v-.535h.848l.027.001a.702.702 0 0 0 .297-.066l-.004.002a.412.412 0 0 0 .179-.181l.001-.002a.676.676 0 0 0-.001-.544l.002.004a.463.463 0 0 0-.178-.205l-.002-.001a.59.59 0 0 0-.295-.079l-.026.001h.001-.611v2.793h-.685v-3.33h1.296c.261 0 .484.047.671.142.187.093.33.222.429.386s.148.353.148.564c0 .215-.049.401-.148.558s-.242.279-.429.364c-.187.086-.41.128-.671.128zm3.956.651v.535h-1.772v-.535h1.772zM40.618 24.6v3.33h-.687V24.6h.687zm1.317 1.356v.521h-1.541v-.521h1.541zm.229-1.356v.537h-1.77V24.6h1.77zm1.936 0v3.33h-.683V24.6h.684zm1.025 0v.537h-2.716V24.6h2.716zm2.625 2.795v.535h-1.772v-.535h1.772zM46.203 24.6v3.33h-.686V24.6h.686zm1.316 1.356v.521h-1.541v-.521h1.541zm.229-1.356v.537h-1.77V24.6h1.77zm.403 0h1.241c.255 0 .474.038.657.114s.326.19.425.339a.982.982 0 0 1 .148.551c0 .179-.031.332-.091.46s-.146.234-.252.316l-.002.001a1.308 1.308 0 0 1-.373.199l-.009.003-.217.115h-1.08l-.005-.535H49.418a.632.632 0 0 0 .281-.066l-.004.002a.431.431 0 0 0 .178-.176l.001-.002a.55.55 0 0 0 .063-.255v-.011.001-.014a.592.592 0 0 0-.062-.266l.002.004a.403.403 0 0 0-.179-.177l-.002-.001a.653.653 0 0 0-.283-.063h-.023.001-.555v2.793h-.686v-3.33zm1.862 3.33-.76-1.485.725-.005.768 1.457v.031h-.734zm2.872-.872v-.005a.435.435 0 0 0-.029-.158l.001.003a.304.304 0 0 0-.095-.132h-.001a.828.828 0 0 0-.194-.119l-.005-.002a2.609 2.609 0 0 0-.311-.118l-.02-.005a3.94 3.94 0 0 1-.456-.175l.026.011a1.776 1.776 0 0 1-.361-.215l.004.003a.95.95 0 0 1-.239-.282l-.002-.005a.78.78 0 0 1-.088-.361v-.017.001-.011c0-.134.034-.26.093-.371l-.002.004a.873.873 0 0 1 .256-.293c.109-.083.24-.146.389-.19.151-.044.316-.066.496-.066.245 0 .46.044.642.133s.325.21.425.364c.102.154.153.33.153.528h-.681v-.012a.512.512 0 0 0-.063-.247l.001.003a.416.416 0 0 0-.18-.175l-.002-.001a.64.64 0 0 0-.283-.064h-.025.001-.023a.694.694 0 0 0-.278.057l.005-.002a.393.393 0 0 0-.178.143l-.001.001a.351.351 0 0 0-.059.196v.005c0 .056.013.108.041.153a.465.465 0 0 0 .127.127l.002.001c.056.04.125.077.208.112s.178.069.286.103c.182.055.341.116.478.185s.254.145.347.231c.094.086.163.182.211.29s.07.231.07.368l.001.032c0 .265-.129.5-.328.645l-.002.002c-.106.079-.234.139-.382.18s-.313.062-.496.062c-.165 0-.328-.022-.487-.065a1.49 1.49 0 0 1-.442-.202l.005.003a1.013 1.013 0 0 1-.309-.333l-.003-.005a.97.97 0 0 1-.116-.487h.688c0 .104.016.191.048.263.031.07.077.128.134.173l.001.001c.06.044.13.077.207.095l.004.001c.082.02.172.03.27.03h.025a.724.724 0 0 0 .272-.052l-.005.002a.362.362 0 0 0 .229-.336v-.005z" style="fill:var(--color1,)"/></symbol><symbol id="client5" viewBox="0 0 44 32"><path d="M3.334 26.697c.17.191.262.429.257.673.008.159-.023.319-.092.466s-.174.278-.307.384a1.847 1.847 0 0 1-1.163.31h.006H0v-4.266h1.993a1.836 1.836 0 0 1 1.111.287l-.007-.004c.129.097.231.22.298.358s.097.289.089.44a.919.919 0 0 1-.232.652 1.107 1.107 0 0 1-.599.333l-.007.001c.27.045.513.174.687.365zm-2.387-.644h.852a.873.873 0 0 0 .541-.141.516.516 0 0 0 .145-.186l.001-.003a.447.447 0 0 0 .039-.185l-.002-.045v.002l.001-.036a.477.477 0 0 0-.041-.193l.001.003a.54.54 0 0 0-.141-.19l-.001-.001a.888.888 0 0 0-.562-.143h.003-.839v1.119zm1.477 1.636a.547.547 0 0 0 .156-.192l.001-.003a.475.475 0 0 0 .046-.205l-.001-.035v.002l.001-.03a.494.494 0 0 0-.049-.214l.001.003a.546.546 0 0 0-.159-.196l-.001-.001a.941.941 0 0 0-.522-.156l-.059.002h.003-.895v1.174h.905a.978.978 0 0 0 .572-.148zm4.984.842-1.109-1.668h-.417v1.667h-.953v-4.266h1.805a1.904 1.904 0 0 1 1.262.367l-.005-.004c.253.232.405.537.429.861s-.08.644-.295.904c-.223.23-.527.383-.861.434l1.181 1.704H7.408zm-1.525-2.249h.78c.542 0 .813-.216.813-.646l.001-.035a.572.572 0 0 0-.046-.227l.001.004a.626.626 0 0 0-.155-.221.902.902 0 0 0-.617-.173h.003-.79l.01 1.298zm6.739 1.39h-1.901l-.336.858h-1l1.746-4.218h1.081l1.739 4.218h-1l-.328-.858zm-.255-.646-.695-1.801-.694 1.8h1.389zm6.78 1.505h-.946l-2.123-2.901v2.901h-.945v-4.267h.945l2.123 2.918v-2.918h.947v4.266zm5.404-1.022a1.98 1.98 0 0 1-.844.748l-.012.005a3.04 3.04 0 0 1-1.331.269h-1.686v-4.266h1.686l.078-.001c.453 0 .884.097 1.272.271l-.02-.008c.362.165.661.424.856.744.195.347.296.73.296 1.119a2.276 2.276 0 0 1-.302 1.13l.006-.011zm-1.083-.101c.257-.263.416-.622.419-1.018v-.001a1.468 1.468 0 0 0-.419-1.018 1.75 1.75 0 0 0-1.191-.362h.005-.657v2.762h.657a1.76 1.76 0 0 0 1.19-.366l-.004.003zM13.214.535s12.221 4.153 11.962 10.164v10.167S12.964 16.71 13.218 10.699L13.214.535zm22.85 17.951c2.308-1.43 4.978-2.317 7.765-2.576v-3.183c-3.211 1.114-5.935 3.134-7.765 5.758z" style="fill:var(--color1, )"/><path d="M34.677 19.444c1.888-3.425 5.164-6.067 9.151-7.384V2.889S26.423 8.806 26.791 17.365v14.474s.776-.264 1.996-.761c0-.463 0-.929.056-1.398.36-3.974 2.459-7.656 5.834-10.237z" style="fill:var(--color1,)"/><path  d="M33.021 24.821c.103-1.095.318-2.101.637-3.06l-.028.096c-2.102 2.229-3.375 4.995-3.64 7.909-.025.275-.039.55-.046.833a49.032 49.032 0 0 0 3.636-1.726l-.288.139a13.192 13.192 0 0 1-.328-2.958c0-.434.02-.864.06-1.287l-.004.054zm.693.052a12.983 12.983 0 0 0 .231 3.88l-.015-.085c4.755-2.561 10.098-6.519 9.892-11.302v-.417c-3.397.343-6.576 1.68-9.047 3.806a12.764 12.764 0 0 0-1.056 4.067l-.004.051z" style="fill:var(--color1,)"/></symbol><symbol id="client6" viewBox="0 0 67 32"><path  d="M33.802 15.248a2.088 2.088 0 0 1-.431-1.423v.006-2.054c0-.629.143-1.108.429-1.435s.777-.491 1.472-.489c.654 0 1.118.139 1.392.418.299.356.444.79.411 1.228v.484h-1.169v-.489c.004-.16-.007-.32-.034-.479a.462.462 0 0 0-.166-.284l-.001-.001a.672.672 0 0 0-.426-.11h.002a.712.712 0 0 0-.448.118l.003-.002a.553.553 0 0 0-.193.309l-.001.004a2.29 2.29 0 0 0-.047.468v.042-.002 2.493a1.27 1.27 0 0 0 .154.707l-.003-.007a.552.552 0 0 0 .23.169l.004.001c.095.036.199.05.302.039a.635.635 0 0 0 .414-.113.503.503 0 0 0 .174-.3v-.003c.027-.165.04-.332.036-.499v-.506h1.17V14a1.873 1.873 0 0 1-.408 1.295l.003-.004c-.268.305-.725.457-1.399.457s-1.181-.163-1.47-.501zm4.869.022c-.295-.32-.443-.786-.443-1.402v-2.161c0-.61.148-1.072.443-1.385s.789-.469 1.482-.468c.688 0 1.179.156 1.474.468.296.314.446.775.446 1.385v2.161c0 .61-.15 1.078-.45 1.4s-.789.482-1.47.482-1.184-.163-1.482-.48zm2.027-.519a1.2 1.2 0 0 0 .14-.639v-2.646l.002-.07a1.17 1.17 0 0 0-.143-.562l.003.006a.563.563 0 0 0-.234-.172l-.004-.001a.626.626 0 0 0-.312-.037h.003a.66.66 0 0 0-.314.039l.004-.002a.564.564 0 0 0-.24.17l-.001.001a1.138 1.138 0 0 0-.14.627v2.658c-.015.22.033.439.14.639a.745.745 0 0 0 .247.159.805.805 0 0 0 .606-.002l-.006.002a.755.755 0 0 0 .247-.159v-.013zm2.782-4.834h1.259l.947 3.986.968-3.986h1.225l.124 5.753h-.906L47 11.672l-.934 3.998h-.726l-.969-4.013-.09 4.013h-.915l.114-5.753zm5.935 0h1.961c1.129 0 1.695.545 1.695 1.634 0 1.043-.595 1.565-1.785 1.563h-.668v2.557h-1.21l.007-5.754zm1.675 2.459a.95.95 0 0 0 .356-.028.86.86 0 0 0 .31-.154.926.926 0 0 0 .174-.654v.004l.001-.066c0-.162-.021-.319-.062-.469l.003.013a.418.418 0 0 0-.09-.158.513.513 0 0 0-.15-.115l-.003-.001a1.234 1.234 0 0 0-.475-.093l-.069.002h.003-.469v1.72h.469zm3.727-2.459h1.3l1.334 5.753h-1.129l-.263-1.326h-1.16l-.272 1.327h-1.145l1.334-5.754zm1.111 3.76-.453-2.415-.453 2.415h.905zm2.6-3.76h.848l1.621 3.282V9.917h1.006v5.753h-.806l-1.632-3.426v3.426h-1.038l.002-5.753zm5.828 3.56-1.348-3.552h1.136l.823 2.281.772-2.281h1.112l-1.332 3.552v2.193h-1.162v-2.193zm-28.685 4.709v.301h-.989v2.338h-.413v-2.338h-.993v-.301h2.395zm3.097 2.639h-.328a.141.141 0 0 1-.081-.025.134.134 0 0 1-.053-.06v-.001l-.286-.627h-1.37l-.286.627a.166.166 0 0 1-.043.071.144.144 0 0 1-.082.025h-.328l1.211-2.638h.421l1.225 2.628zm-2.005-.98h1.143l-.484-1.074a1.815 1.815 0 0 1-.087-.235l-.003-.014-.045.14-.044.111-.479 1.072zm4.092.721c.076.004.152.004.228 0 .065-.006.13-.016.194-.031.07-.015.128-.032.185-.052l-.01.003c.053-.018.107-.041.162-.064v-.594h-.49a.094.094 0 0 1-.03-.005h.001a.108.108 0 0 1-.03-.016.06.06 0 0 1-.018-.021.048.048 0 0 1-.006-.024V19.556h.939v1.011a1.796 1.796 0 0 1-.498.213l-.013.003c-.1.025-.201.043-.303.054a3.51 3.51 0 0 1-.353.017h-.014c-.213 0-.418-.036-.609-.103l.013.004a1.488 1.488 0 0 1-.486-.277l.002.002a1.297 1.297 0 0 1-.31-.41l-.003-.008a1.301 1.301 0 0 1-.111-.53v-.019.001-.016c0-.193.04-.377.112-.544l-.003.009c.07-.156.176-.299.313-.418a1.47 1.47 0 0 1 .484-.274c.208-.068.428-.1.649-.098.113 0 .225.007.336.023a1.63 1.63 0 0 1 .53.172c.076.042.145.087.211.138l-.116.164a.101.101 0 0 1-.039.035h-.001a.112.112 0 0 1-.055.014.16.16 0 0 1-.076-.022h.001a1.563 1.563 0 0 1-.125-.066l.007.004a1.112 1.112 0 0 0-.155-.069l-.008-.002a1.522 1.522 0 0 0-.213-.057l-.009-.001a1.752 1.752 0 0 0-.291-.023h-.017.001-.014c-.162 0-.318.027-.463.076l.01-.003a1.034 1.034 0 0 0-.356.209l.001-.001a.903.903 0 0 0-.226.329 1.221 1.221 0 0 0 .003.888l-.003-.008a.95.95 0 0 0 .242.332c.1.09.22.161.353.209.154.046.317.063.479.052zm3.859-.042h1.323v.301H44.31v-2.638h.414l-.01 2.338zm2.698.301h-.414v-2.638h.414v2.638zm1.54-2.627a.203.203 0 0 1 .064.048l1.769 1.989-.002-.047.002-.049v.002-1.966h.361v2.65h-.221a.193.193 0 0 1-.077-.016h.001a.23.23 0 0 1-.065-.05l-1.767-1.988v2.052h-.346v-2.639h.215c.023 0 .047.004.068.012zm5.242-.012v.29h-1.468v.871h1.188v.28h-1.188v.9h1.467v.29h-1.894v-2.632h1.894zM10.806 1.89l18.385 4.505V22.18l-18.385-4.502V1.89zM9.627.544v17.899l20.741 5.083V5.629L9.627.544z" style="fill:var(--color1, )"/><path fill="" d="M20.744 31.836 0 26.748V8.851l20.744 5.085v17.9z" style="fill:var(--color1,)"/><path fill="" d="m9.971 1.687 18.146 4.448-7.716 6.661L2.253 8.345l7.719-6.658zM9.627.544 0 8.851l20.744 5.086 9.625-8.307L9.628.544zm12.284 30.284 8.457-7.299-8.458-2.075v9.375z" style="fill:var(--color1, )"/></symbol><symbol id="diligence" viewBox="0 0 32 32"><path fill="#4d5ae5" d="M14.928 14.967h1.066v4.798h-1.066v-4.798zm4.265 2.132h1.066v2.665h-1.066v-2.665zm-8.531 1.599h1.066v1.066h-1.066v-1.066zm-3.199-.533H8.53v1.599H7.463v-1.599z" style="fill:var(--color2, #4d5ae5)"/><path fill="#2e2f42" d="M1.599 28.295h25.59a1.6 1.6 0 0 0 1.599-1.599v-2.133a1.6 1.6 0 0 0-1.599-1.599h-.534V9.669l3.028-2.868a1.608 1.608 0 1 0-.742-.753l-.004-.01-2.282 2.163v-1.23a1.6 1.6 0 0 0-1.599-1.599H3.73a1.6 1.6 0 0 0-1.599 1.599v15.994h-.533a1.6 1.6 0 0 0-1.599 1.599v2.134a1.6 1.6 0 0 0 1.599 1.599zM30.388 4.837a.533.533 0 1 1 0 1.066.533.533 0 1 1 0-1.066zM3.199 6.97c0-.295.239-.534.533-.534h21.325c.295 0 .533.239.533.534v2.239l-1.066 1.013V8.036a.533.533 0 0 0-.533-.533H4.798a.533.533 0 0 0-.533.533v13.328c0 .295.239.534.533.534h19.193a.533.533 0 0 0 .533-.534v-9.675l1.066-1.01v12.285H3.199V6.971zm4.798 6.93h-.005a1.6 1.6 0 1 0 1.112 2.748l1.853.93a.533.533 0 0 0 .637-.123l3.939-4.432 3.873 2.902a.532.532 0 0 0 .686-.04l3.365-3.188v8.132H5.332V8.567h18.126v2.66l-3.773 3.572-3.906-2.928a.531.531 0 0 0-.717.072v.001l-3.994 4.493-1.493-.747c.011-.064.018-.129.021-.194a1.6 1.6 0 0 0-1.599-1.599zm.533 1.6a.533.533 0 1 1-1.066 0 .533.533 0 1 1 1.066 0zm3.199 8.53h5.331v.533a.533.533 0 0 1-.533.533h-4.265a.533.533 0 0 1-.533-.533v-.533zm-10.663.533c0-.295.239-.533.533-.533h9.063v.533a1.6 1.6 0 0 0 1.599 1.599h4.266a1.6 1.6 0 0 0 1.599-1.599v-.534h9.062c.295 0 .534.239.534.533v2.133a.534.534 0 0 1-.534.533H1.599a.533.533 0 0 1-.533-.533v-2.133z" style="fill:var(--color3, #2e2f42)"/></symbol><symbol id="facebook" viewBox="0 0 32 32"><path  d="M21.338 5.316h2.921V.226A36.575 36.575 0 0 0 20.132 0h-.138.007c-4.213 0-7.097 2.651-7.097 7.523v4.482H8.252v5.69h4.65v14.317h5.7V17.697h4.462l.708-5.692H18.6V8.084c.002-1.645.444-2.769 2.737-2.769z" style="fill:var(--color4,)"/></symbol><symbol id="instagram" viewBox="0 0 32 32"><path d="M31.979 9.411c-.074-1.701-.35-2.871-.744-3.883a7.87 7.87 0 0 0-1.849-2.84l-.001-.001A7.888 7.888 0 0 0 26.606.863l-.054-.018c-1.02-.394-2.181-.67-3.881-.744-1.717-.08-2.263-.1-6.604-.1-4.348 0-4.892.02-6.598.094C7.768.169 6.6.445 5.588.839a7.87 7.87 0 0 0-2.84 1.849l-.001.001A7.893 7.893 0 0 0 .921 5.468l-.018.054C.509 6.542.235 7.703.159 9.403c-.08 1.715-.1 2.261-.1 6.604 0 4.348.02 4.892.094 6.598.074 1.701.35 2.871.744 3.883a7.88 7.88 0 0 0 1.851 2.839 7.895 7.895 0 0 0 2.833 1.845c1.02.394 2.181.67 3.883.744 1.707.076 2.251.094 6.598.094 4.346 0 4.89-.02 6.596-.094 1.701-.074 2.871-.35 3.883-.744a8.23 8.23 0 0 0 4.664-4.628l.019-.055c.394-1.02.67-2.181.744-3.883.076-1.707.094-2.251.094-6.598 0-4.346-.006-4.89-.08-6.596zM29.098 22.48c-.07 1.565-.332 2.409-.552 2.971a5.346 5.346 0 0 1-3.003 3.029l-.036.013c-.562.218-1.413.48-2.969.548-1.689.076-2.195.094-6.466.094s-4.784-.02-6.466-.094c-1.565-.068-2.409-.33-2.971-.55a4.95 4.95 0 0 1-1.838-1.193l-.001-.001a4.975 4.975 0 0 1-1.183-1.804l-.011-.034c-.22-.562-.48-1.413-.55-2.969-.074-1.689-.094-2.197-.094-6.466 0-4.272.02-4.784.094-6.466.07-1.565.332-2.409.55-2.971a4.899 4.899 0 0 1 1.2-1.839 4.957 4.957 0 0 1 1.841-1.194c.56-.22 1.412-.48 2.969-.55 1.689-.074 2.195-.094 6.466-.094 4.278 0 4.782.02 6.466.094 1.563.07 2.407.332 2.969.55a4.94 4.94 0 0 1 1.841 1.194c.53.52.936 1.144 1.192 1.841.22.56.482 1.41.55 2.969.076 1.689.094 2.195.094 6.466s-.018 4.772-.092 6.458z" style="fill:var(--color4,)"/><path d="M16.066 7.785a8.226 8.226 0 0 0-.01 16.446h.009a8.226 8.226 0 0 0 .01-16.446h-.009zm0 13.559a5.336 5.336 0 1 1 0-10.672 5.336 5.336 0 1 1 0 10.672zM26.533 7.461a1.92 1.92 0 1 1-3.842 0 1.92 1.92 0 1 1 3.842 0z" style="fill:var(--color4,)"/></symbol><symbol id="linkedin" viewBox="0 0 32 32"><path d="M32.003 32.011h.008V20.267c0-5.742-1.236-10.168-7.951-10.168-3.227 0-5.394 1.773-6.278 3.451h-.094v-2.913h-6.364v21.374h6.63V21.427c0-2.785.528-5.478 3.977-5.478 3.401 0 3.451 3.179 3.451 5.658v10.404h6.622zM.528 10.64h6.636v21.372H.528V10.64zM3.843 0C1.722 0 .002 1.721.002 3.841s1.721 3.881 3.841 3.881c2.123 0 3.845-1.761 3.845-3.881S5.961 0 3.841 0z" style="fill:var(--color4,)"/></symbol><symbol id="punctuality" viewBox="0 0 32 32"><path fill="#2e2f42" d="M31.301 15.303C31.299 6.85 24.445-.002 15.991 0S.686 6.856.688 15.31c.002 6.789 4.423 12.545 10.543 14.547l.108.031a.677.677 0 0 0 .53-.064.642.642 0 0 0 .284-.357l3.865-12.252a1.913 1.913 0 1 0-.852-3.63l.011-.005-5.107-5.107a.637.637 0 1 0-.902.902l5.104 5.11a1.847 1.847 0 0 0-.191.826c0 .602.283 1.137.723 1.48l.004.003-3.683 11.675C3.846 25.788.119 17.714 2.8 10.435 5.481 3.157 13.556-.571 20.834 2.11s11.005 10.756 8.325 18.034c-1.345 3.582-4.004 6.407-7.375 7.939l-.088.036-.398-1.875a.638.638 0 0 0-1.049-.343l.001-.001-3.837 3.426a.639.639 0 0 0 .227 1.084l.005.001 4.899 1.564a.638.638 0 0 0 .819-.744l.001.004-.391-1.839c5.528-2.375 9.33-7.773 9.33-14.059v-.034.002zm-15.307-.638a.638.638 0 0 1 0 1.276.638.638 0 0 1 0-1.276zm2.101 14.866 2.184-1.948.603 2.84-2.787-.892z" style="fill:var(--color3, #2e2f42)"/><path fill="#4d5ae5" d="M15.357 3.185V4.46a.638.638 0 1 0 1.276 0V3.185a.639.639 0 0 0-1.276-.001v.001zm-11.48 11.48a.638.638 0 1 0 0 1.276h1.275a.638.638 0 1 0 0-1.276H3.877zm24.235 1.276a.638.638 0 1 0 0-1.276h-1.275a.639.639 0 0 0-.001 1.276H28.112z" style="fill:var(--color2, #4d5ae5)"/></symbol><symbol id="strategy" viewBox="0 0 32 32"><path fill="#4d5ae5" d="M31.978 4.525a.535.535 0 0 0-.427-.362h-.003l-1.911-.278-.855-1.731c-.179-.365-.777-.365-.956 0l-.855 1.731-1.91.278a.534.534 0 0 0-.296.91l1.383 1.348-.327 1.903c-.034.2.048.402.212.522a.528.528 0 0 0 .562.04l1.709-.899 1.709.899a.534.534 0 0 0 .773-.565v.003l-.326-1.903 1.383-1.348a.535.535 0 0 0 .134-.551l.001.004zm-2.463 1.327a.534.534 0 0 0-.153.472l.191 1.114-1.001-.526a.525.525 0 0 0-.5.001l.003-.001-1.001.526.191-1.114a.53.53 0 0 0-.153-.472l-.81-.79 1.119-.163a.535.535 0 0 0 .402-.292l.5-1.013.501 1.013a.532.532 0 0 0 .402.292l1.119.163-.809.79zm-3.378 14.673H25.07v1.067h1.067v-1.067zm0 2.134H25.07v1.067h1.067v-1.068zM27.204 21.592h-1.067v1.067h1.067v-1.067zm-2.134 0h-1.067v1.067h1.067v-1.067zm-2.667 4.801h-1.067v1.067h1.067v-1.067zm0 2.133h-1.067v1.067h1.067v-1.067zm1.067-1.067h-1.067v1.067h1.067v-1.068zM21.336 27.459h-1.067v1.067h1.067v-1.068zm-5.334-3.2h-1.067v1.067h1.067v-1.068zm0 2.134h-1.067v1.067h1.067v-1.067zm1.067-1.067h-1.067v1.067h1.067v-1.067zm-2.134 0h-1.067v1.067h1.067v-1.067zM5.867 6.123H4.8V7.19h1.067V6.123zm0 2.133H4.8v1.067h1.067V8.256zm1.067-1.067H5.867v1.067h1.067V7.189zm-2.133 0H3.734v1.067h1.067V7.189z" style="fill:var(--color2, #4d5ae5)"/><path fill="#2e2f42" d="M24.718 14.161a1.774 1.774 0 0 0-1.179-.704l-.009-.001a1.77 1.77 0 0 0-1.344.356l.004-.003-1.252.96-1.898 1.418-1.358-.541c2.421-1.086 4.114-3.508 4.114-6.321 0-3.824-3.123-6.934-6.962-6.934s-6.962 3.11-6.962 6.934c0 1.386.414 2.674 1.12 3.759l-2.769-.024c-.008 0-.015.005-.024.005a.52.52 0 0 0-.155.03c-.013.005-.026.008-.038.014-.006.002-.013.003-.019.007l-3.234 1.597-1.894.911a.429.429 0 0 0-.064.036l.001-.001a1.78 1.78 0 0 0-.593 2.304l-.005-.01c.22.429.595.745 1.056.89a1.772 1.772 0 0 0 1.388-.133l-.009.005 1.388-.738 2.264-1.17 1.357-.008-5.443 5.416-.002.002L.858 23.55c-.303.299-.49.714-.49 1.173v.005a1.664 1.664 0 0 0 1.669 1.664 1.67 1.67 0 0 0 1.18-.485l1.315-1.309 1.741-1.3.901.897-3.102 3.089c-.303.299-.49.714-.49 1.173v.005c0 .445.174.864.49 1.179.325.323.753.485 1.18.485s.855-.162 1.18-.485l3.482-3.467.001-.002 1.01-1-.004-.003c.007-.006.015-.009.022-.015l5.167-5.659 3.471.494a.522.522 0 0 0 .266-.035l-.004.001c.017-.006.033-.015.05-.023.019-.009.039-.015.057-.027l3.214-2.134c.012-.008.018-.02.029-.029.012-.01.029-.014.04-.025l1.272-1.192a1.777 1.777 0 0 0 .209-2.366l.003.005zM2.13 17.772a.714.714 0 0 1-.558.052.717.717 0 0 1-.215-1.258l.002-.001 1.314-.632.316.925.133.388-.993.528zm3.498-1.827-1.549.8-.255-.747-.184-.537 2.027-1-.04 1.484zM20.73 9.323c0 .919-.219 1.785-.599 2.56l-4.182-1.899a1.86 1.86 0 0 0-.782-1.384l-.006-.004 1.464-4.861c2.378.756 4.105 2.974 4.105 5.588zm-11.791 0c0-3.235 2.645-5.868 5.895-5.868.253 0 .5.022.745.053l-1.432 4.754c-.019 0-.037-.005-.057-.005h-.001a1.872 1.872 0 0 0-1.872 1.866 1.872 1.872 0 0 0 1.872 1.867h.001c.695 0 1.295-.383 1.618-.945l3.863 1.755a5.891 5.891 0 0 1-4.737 2.39c-3.25 0-5.895-2.633-5.895-5.868zm5.957.8c0 .441-.362.8-.806.8h-.002a.804.804 0 0 1-.804-.8c0-.441.362-.8.806-.8s.806.359.806.8zM2.465 25.149a.609.609 0 0 1-.855 0 .591.591 0 0 1 0-.844l.962-.959.851.848-.959.955zm3.214 3.734a.606.606 0 0 1-.855.001.591.591 0 0 1 0-.844l.963-.959.852.848-.96.955zm3.483-3.469-.002.001-1.765 1.76-.852-.848 1.764-1.756.002-.001c.04-.04.065-.088.09-.135.007-.014.02-.026.026-.04.017-.041.019-.085.025-.129.004-.024.014-.047.014-.073 0-.035-.012-.07-.02-.105-.007-.032-.007-.065-.018-.096a.532.532 0 0 0-.091-.138c-.01-.012-.014-.027-.025-.038h-.001l-.001-.002-1.607-1.6c-.017-.017-.039-.024-.058-.038a.491.491 0 0 0-.084-.056l-.003-.001a.477.477 0 0 0-.09-.032l-.003-.001a.502.502 0 0 0-.101-.02H6.34a.49.49 0 0 0-.077.006h.003a.59.59 0 0 0-.108.021l.004-.001a.502.502 0 0 0-.096.046l.002-.001c-.02.011-.043.015-.061.029L4.233 23.49l-.901-.897 2.399-2.387 4.361 4.29-.927.919zm6.819-7.018c-.015-.002-.03.004-.045.003l-.026-.001a.562.562 0 0 0-.092.008h.003a.5.5 0 0 0-.187.069l.002-.001a.554.554 0 0 0-.083.061c-.013.011-.028.017-.04.029l-4.699 5.147-4.329-4.258 2.833-2.818a.535.535 0 0 0-.378-.911h-.001l-2.219.013.027-1.608 3.104.027a6.929 6.929 0 0 0 4.979 2.101h.003c.438 0 .864-.045 1.28-.123.04.032.079.064.13.085l2.409.96.153.758.179.885-3.003-.427zm4.042.179-.314-1.558 1.447-1.08.947 1.257-2.08 1.382zm3.754-2.831-.838.785-.931-1.237.832-.637a.73.73 0 0 1 .543-.143.716.716 0 0 1 .395 1.232z" style="fill:var(--color3, #2e2f42)"/><path fill="#2e2f42" d="m13.604 18.546-2.143-2.134a.53.53 0 0 0-.752 0l-2.143 2.134a.533.533 0 0 0 0 .756l2.143 2.133a.53.53 0 0 0 .752 0l2.143-2.133a.532.532 0 0 0 0-.756zm-2.52 1.76-1.387-1.381 1.387-1.381 1.388 1.381-1.388 1.381zm6.082-15.234-.258 1.036c.071.018 1.738.452 1.738 2.149h1.067c0-2.017-1.666-2.966-2.547-3.185zm2.548 4.251h-1.067v1.067h1.067V9.323z" style="fill:var(--color3, #2e2f42)"/></symbol><symbol id="technologies" viewBox="0 0 32 32"><path fill="#2e2f42" d="m30.777 22.1-8.444-8.506.937-4.616c.242.094.499.144.759.145h.032a2.159 2.159 0 1 0-2.029-1.42l-.005-.015-4.961.605L8.974.159a.53.53 0 0 0-.376-.16.54.54 0 0 0-.374.155L6.711 1.658a.53.53 0 0 0 0 .754l.814.825C6.382 5.3 5.709 7.76 5.709 10.377c0 4.106 1.656 7.826 4.337 10.527l-.001-.001a.506.506 0 0 0 .146.098 2.986 2.986 0 0 0-.052.546v6.189H3.738a2.67 2.67 0 0 0-2.668 2.667v1.067c0 .295.239.534.534.534h24.537a.534.534 0 0 0 .534-.534v-1.067a2.67 2.67 0 0 0-2.667-2.667h-6.401v-2.742a14.78 14.78 0 0 0 10.167-1.503l-.077.039.819.823a.534.534 0 0 0 .377.16.532.532 0 0 0 .373-.155l1.513-1.505a.535.535 0 0 0 0-.754zM23.283 6.234a1.067 1.067 0 1 1 .752 1.824h-.003a1.066 1.066 0 0 1-.746-1.824h-.002zm-1.256 3.505-.599 2.945-1.176-1.182 1.774-1.764zm-.606-.902-1.92 1.909-1.485-1.494 3.405-.415zm2.586 19.967a1.6 1.6 0 0 1 1.6 1.6v.534H2.137v-.534a1.6 1.6 0 0 1 1.6-1.6h20.269zM16.54 26.67v1.067h-5.334V26.67h5.334zm-5.334-1.067v-4.054c0-1.294 1.197-2.347 2.667-2.347s2.667 1.053 2.667 2.347v4.054h-5.334zm6.4-1.696v-2.358c0-1.882-1.675-3.413-3.733-3.413h-.059c-1.353 0-2.54.707-3.214 1.771l-.009.016a13.82 13.82 0 0 1-3.812-9.551c0-2.314.567-4.497 1.569-6.415l-.036.077 18.604 18.711c-1.823.947-3.98 1.502-6.267 1.502-1.079 0-2.129-.124-3.137-.357l.093.018zm11.291-.683L7.837 2.041l.755-.752 7.936 7.981c.003 0 .006.007.009.009l13.116 13.193-.757.752z" style="fill:var(--color3, #2e2f42)"/><path fill="#4d5ae5" d="M13.877 20.269h-.007a1.6 1.6 0 0 0-.002 3.2h.007a1.6 1.6 0 0 0 .002-3.2zm.374 1.979a.534.534 0 0 1-.91-.379v-.002a.534.534 0 0 1 .53-.531.535.535 0 0 1 .374.912h.005z" style="fill:var(--color2, #4d5ae5)"/></symbol><symbol id="twitter" viewBox="0 0 32 32"><path d="M32.011 6.08a13.28 13.28 0 0 1-3.713 1.029l-.068.007a6.563 6.563 0 0 0 2.874-3.581l.013-.046a12.873 12.873 0 0 1-4.077 1.574l-.084.014a6.562 6.562 0 0 0-11.352 4.486c0 .52.044 1.02.152 1.497a18.56 18.56 0 0 1-13.5-6.831l-.027-.034a6.5 6.5 0 0 0-.896 3.312 6.567 6.567 0 0 0 2.889 5.444l.023.015a6.469 6.469 0 0 1-2.998-.823l.033.017v.072a6.596 6.596 0 0 0 5.215 6.441l.043.008a6.414 6.414 0 0 1-1.669.216h-.054.003a5.852 5.852 0 0 1-1.28-.118l.038.006c.873 2.625 3.275 4.497 6.124 4.571h.009a13.1 13.1 0 0 1-8.122 2.799h-.015.001c-.538 0-1.054-.024-1.571-.09 2.827 1.847 6.289 2.945 10.007 2.945h.063-.003c12.076 0 18.679-10.004 18.679-18.675 0-.29-.01-.57-.024-.848a13.194 13.194 0 0 0 3.259-3.36l.03-.047z" style="fill:var(--color4,)"/></symbol></defs></svg>